<svg xmlns="http://www.w3.org/2000/svg" width="48.001" height="48.001"><g fill="#1a171b"><path d="M32.726 0h-32A.728.728 0 0 0 0 .728v46.546A.728.728 0 0 0 .727 48h32a.729.729 0 0 0 .728-.727V.728A.728.728 0 0 0 32.726 0zM32 46.545H1.455V11.152H32zM32 9.7H1.455V1.455H32z"/><path d="M27.877 6.305a.728.728 0 0 0 .514-1.243.742.742 0 0 0-1.028 0 .732.732 0 0 0-.213.515.727.727 0 0 0 .727.728zM22.864 6.305a.728.728 0 0 0 0-1.456.728.728 0 0 0 0 1.456zM17.86 6.305a.727.727 0 0 0 .727-.728.73.73 0 0 0-.213-.515.752.752 0 0 0-1.028 0 .728.728 0 0 0-.213.515.746.746 0 0 0 .213.515.728.728 0 0 0 .514.213zM22.763 16.971h5.115a.728.728 0 0 0 0-1.456h-5.115a.728.728 0 1 0 0 1.456zM11.4 16.971h7.487a.728.728 0 1 0 0-1.456H11.4a.728.728 0 1 0 0 1.456zM5.577 16.971h1.939a.728.728 0 0 0 0-1.456H5.577a.728.728 0 1 0 0 1.456zM11.4 23.274h11.468a.728.728 0 1 0 0-1.456H11.4a.728.728 0 1 0 0 1.456zM5.577 23.274h1.939a.728.728 0 0 0 0-1.456H5.577a.728.728 0 1 0 0 1.456zM27.878 28.122h-6.867a.728.728 0 1 0 0 1.456h6.867a.728.728 0 0 0 0-1.456zM11.4 29.577h5.736a.728.728 0 1 0 0-1.456H11.4a.728.728 0 1 0 0 1.456zM5.577 29.577h1.939a.728.728 0 0 0 0-1.456H5.577a.728.728 0 1 0 0 1.456zM27.878 34.424h-4.362a.728.728 0 1 0 0 1.456h4.362a.728.728 0 0 0 0-1.456zM11.4 35.879h8.241a.728.728 0 1 0 0-1.456H11.4a.728.728 0 1 0 0 1.456zM5.577 35.879h1.939a.728.728 0 0 0 0-1.456H5.577a.728.728 0 1 0 0 1.456zM21.094 40.727H16.58a.728.728 0 1 0 0 1.456h4.514a.728.728 0 0 0 0-1.456zM5.577 42.182H12.7a.728.728 0 0 0 0-1.456H5.577a.728.728 0 1 0 0 1.456zM43.608 4.789l-.845-.436V1.216a.727.727 0 0 0-.41-.654l-.528-.256a3.089 3.089 0 0 0-2.681 0l-.528.256a.725.725 0 0 0-.41.654v3.136l-.964.5a.729.729 0 0 0-.395.646v33.869a1.313 1.313 0 0 0 .046.252l2.909 7.9a.727.727 0 0 0 1.366 0l2.908-7.9a1.922 1.922 0 0 0 .045-.262V6.3a2.784 2.784 0 0 1 2.424 2.56V21.7a.728.728 0 0 0 1.455 0V8.86a4.342 4.342 0 0 0-4.392-4.071zM39.66 1.672l.118-.057a1.628 1.628 0 0 1 1.413 0l.117.057v2.016a3.074 3.074 0 0 0-1.648 0zm.825 43.5-2.006-5.445 1.262-.652a1.623 1.623 0 0 1 1.486 0l1.261.65zm2.181-6.993-.771-.4a3.084 3.084 0 0 0-2.82 0l-.771.4v-9.962l1.438-.742a1.623 1.623 0 0 1 1.486 0l1.438.742v9.957zm0-11.593-.771-.4a3.074 3.074 0 0 0-2.821 0l-.771.4V5.94l1.438-.74a1.629 1.629 0 0 1 1.487 0l1.438.741v20.64z"/></g></svg>